<svg width="1924" height="218" viewBox="0 0 1924 218" fill="none" xmlns="http://www.w3.org/2000/svg">
<path d="M0 0H240.5V0C240.5 60.199 191.699 109 131.5 109H109C48.801 109 0 60.199 0 0V0Z" fill="#FFE3D2"/>
<path d="M1683.5 0H1924V0C1924 60.199 1875.2 109 1815 109H1792.5C1732.3 109 1683.5 60.199 1683.5 0V0Z" fill="#FFE3D2"/>
<path d="M240.5 218L0 218V218C0 157.801 48.801 109 109 109H131.5C191.699 109 240.5 157.801 240.5 218V218Z" fill="#FFC1A5"/>
<path d="M1924 218L1683.5 218V218C1683.5 157.801 1732.3 109 1792.5 109H1815C1875.2 109 1924 157.801 1924 218V218Z" fill="#FFC1A5"/>
<path d="M481 0L481 218L360.75 218L360.75 120.25C360.75 53.8378 414.588 8.44874e-06 481 0V0Z" fill="#FF6F57"/>
<path d="M240.5 0L240.5 218L360.75 218L360.75 120.25C360.75 53.8377 306.912 -8.44874e-06 240.5 0V0Z" fill="#FF9779"/>
<path d="M721.5 0L481 -1.9233e-05L481 109L612.5 109C672.699 109 721.5 60.199 721.5 0V0Z" fill="#FF2D20"/>
<path d="M1202.5 218L1443 218V109L1311.5 109C1251.3 109 1202.5 157.801 1202.5 218V218Z" fill="#DB171C"/>
<path d="M721.5 0L721.5 218L841.75 218L841.75 120.25C841.75 53.8377 787.912 2.65552e-06 721.5 0V0Z" fill="#B71022"/>
<path d="M721.5 218H481V109H612.5C672.699 109 721.5 157.801 721.5 218V218Z" fill="#DB171C"/>
<path d="M1202.5 0L1202.5 218L1082.25 218L1082.25 120.25C1082.25 53.8377 1136.09 -2.65552e-06 1202.5 0V0Z" fill="#B71022"/>
<path d="M1683.5 0L1683.5 218L1563.25 218L1563.25 120.25C1563.25 53.8377 1617.09 -2.65552e-06 1683.5 0V0Z" fill="#FF9779"/>
<path d="M1202.5 0L1443 0V109L1311.5 109C1251.3 109 1202.5 60.199 1202.5 0V0Z" fill="#FF2D20"/>
<path d="M962 0L962 218L1082.25 218L1082.25 120.25C1082.25 53.8378 1028.41 2.65552e-06 962 0V0Z" fill="#E22136"/>
<path d="M1443 0L1443 218L1563.25 218L1563.25 120.25C1563.25 53.8378 1509.41 2.65552e-06 1443 0V0Z" fill="#FF6F57"/>
<path d="M962 0L962 218L841.75 218L841.75 120.25C841.75 53.8377 895.588 -2.65552e-06 962 0V0Z" fill="#FF2D20"/>
</svg>
